<svg width="15" height="15" viewBox="0 0 15 15" fill="none" xmlns="http://www.w3.org/2000/svg">
<path fill-rule="evenodd" clip-rule="evenodd" d="M15 0.624967C15 0.459216 14.9342 0.300253 14.817 0.183049C14.6997 0.0658447 14.5408 0 14.375 0H6.87543C6.70968 0 6.55071 0.0658447 6.43351 0.183049C6.31631 0.300253 6.25046 0.459216 6.25046 0.624967C6.25046 0.790719 6.31631 0.949681 6.43351 1.06689C6.55071 1.18409 6.70968 1.24993 6.87543 1.24993H12.8664L0.18328 13.9318C0.125173 13.9899 0.0790801 14.0589 0.0476329 14.1348C0.0161857 14.2107 0 14.2921 0 14.3742C0 14.4564 0.0161857 14.5378 0.0476329 14.6137C0.0790801 14.6896 0.125173 14.7586 0.18328 14.8167C0.241387 14.8748 0.31037 14.9209 0.38629 14.9524C0.46221 14.9838 0.543581 15 0.625757 15C0.707932 15 0.789303 14.9838 0.865223 14.9524C0.941143 14.9209 1.01013 14.8748 1.06823 14.8167L13.7501 2.13364V8.12457C13.7501 8.29032 13.8159 8.44929 13.9331 8.56649C14.0503 8.6837 14.2093 8.74954 14.375 8.74954C14.5408 8.74954 14.6997 8.6837 14.817 8.56649C14.9342 8.44929 15 8.29032 15 8.12457V0.624967Z" fill="#1C1919"/>
</svg>
