<svg width="160" height="84" viewBox="0 0 160 84" fill="none" xmlns="http://www.w3.org/2000/svg">
<path d="M108.873 82.9813V75.6049L108.727 75.6713C107.06 76.4747 105.247 76.9328 103.387 77.0191C101.463 77.1651 99.5517 76.6054 98.0133 75.4455C96.9163 74.6023 96.0988 73.4504 95.6667 72.1391C95.1997 70.7064 95.1466 69.1719 95.5133 67.7106C95.86 66.2167 96.7 64.8822 97.8933 63.9327C98.96 63.043 100.26 62.4853 101.64 62.326C104.077 62.0542 106.539 62.5119 108.713 63.6406L108.873 63.7269V56.3106L108.533 56.2177C106.357 55.5261 104.075 55.2293 101.793 55.3413C99.7152 55.3931 97.6685 55.8582 95.7733 56.709C93.86 57.5854 92.1733 58.8801 90.8467 60.5001C88.8225 63.0466 87.6991 66.1874 87.6509 69.4349C87.6027 72.6824 88.6323 75.8549 90.58 78.4599C92.5467 80.9696 95.3067 82.7423 98.4133 83.4793C101.687 84.276 105.12 84.1565 108.327 83.134L108.873 82.9813M35.5733 82.9813V75.6049L35.4267 75.6713C33.76 76.4747 31.9467 76.9328 30.0867 77.0191C28.1626 77.167 26.2508 76.6071 24.7133 75.4455C23.6164 74.6036 22.8007 73.451 22.3733 72.1391C21.9013 70.7076 21.8458 69.1722 22.2133 67.7106C22.56 66.2167 23.3933 64.8822 24.5933 63.9327C25.66 63.043 26.96 62.4853 28.34 62.326C30.7766 62.0542 33.2392 62.5119 35.4133 63.6406L35.5733 63.7269V56.3106L35.2333 56.2177C33.0574 55.5261 30.7746 55.2293 28.4933 55.3413C26.4153 55.3939 24.3687 55.8588 22.4733 56.709C20.5614 57.5836 18.8744 58.88 17.54 60.5001C15.5181 63.0473 14.3955 66.1872 14.3461 69.4338C14.2967 72.6805 15.3232 75.8528 17.2667 78.4599C19.2313 80.9717 21.9965 82.742 25.1067 83.4793C28.38 84.276 31.8067 84.1565 35.02 83.134L35.5733 82.9813ZM61.7333 76.8598L61.7067 83.2137L62.1733 83.2934C63.64 83.5656 65.1133 83.7515 66.6 83.8577C67.9 83.9839 69.2067 84.0038 70.5133 83.9374C71.76 83.8445 72.9933 83.6121 74.1867 83.2469C75.5867 82.8485 76.8867 82.1647 77.9933 81.2219C78.9924 80.3693 79.7564 79.2769 80.2133 78.0482C81.0082 75.9942 80.9915 73.7165 80.1667 71.6743C79.7371 70.6117 79.0554 69.6686 78.18 68.9256C77.3317 68.1702 76.3383 67.5943 75.26 67.2325L70.4467 65.4532C69.8718 65.2088 69.4053 64.7654 69.1333 64.2049C69.0283 63.9751 68.9784 63.724 68.9877 63.4716C68.9969 63.2193 69.0651 62.9725 69.1867 62.7509C69.434 62.3475 69.7896 62.0209 70.2133 61.8081C70.7526 61.5495 71.3319 61.3834 71.9267 61.3168C72.9467 61.1707 73.98 61.1773 74.9933 61.35C76.1933 61.4828 77.38 61.6886 78.5467 61.9874L78.8 62.0405V56.1778L78.34 56.0782C77.1469 55.7939 75.9382 55.5789 74.72 55.4342C73.1405 55.2284 71.5412 55.2218 69.96 55.4143C67.96 55.5936 66.06 56.3637 64.4867 57.6053C63.42 58.4419 62.6133 59.5507 62.1467 60.8188C61.4533 62.7443 61.4467 64.8556 62.1467 66.7877C62.5067 67.7504 63.08 68.6069 63.8267 69.3173C64.4733 69.9348 65.2067 70.466 66.0067 70.8842C67.0533 71.442 68.1667 71.8735 69.32 72.1789C69.7 72.2918 70.08 72.4113 70.4533 72.5375L71.02 72.7433L71.18 72.8097C71.74 73.0089 72.26 73.3275 72.6867 73.7392C72.9867 74.0181 73.22 74.3633 73.36 74.7418C73.4522 75.0919 73.4545 75.4595 73.3667 75.8107C73.1865 76.3772 72.7887 76.8498 72.26 77.1253C71.6857 77.4175 71.0658 77.6105 70.4267 77.6963C69.4853 77.8424 68.5312 77.8891 67.58 77.8357C66.3342 77.7386 65.0947 77.5746 63.8667 77.3444C63.2265 77.2063 62.5887 77.058 61.9533 76.8996L61.7333 76.8598V76.8598ZM45.2333 83.466H52.2333V55.7994H45.2333V83.466ZM126.313 63.9725C127.057 63.3693 127.913 62.9179 128.831 62.6442C129.75 62.3704 130.714 62.2797 131.668 62.3771C132.622 62.4745 133.548 62.7582 134.392 63.212C135.236 63.6657 135.981 64.2806 136.587 65.0216C137.194 65.7614 137.648 66.6131 137.924 67.5281C138.2 68.443 138.292 69.4031 138.195 70.3535C138.097 71.3039 137.813 72.2259 137.357 73.0666C136.902 73.9073 136.284 74.6503 135.54 75.253L135.427 75.3459C133.908 76.5054 131.994 77.0255 130.095 76.7944C128.195 76.5633 126.463 75.5996 125.27 74.1102C124.076 72.6208 123.517 70.7246 123.712 68.829C123.907 66.9335 124.841 65.1898 126.313 63.9725M116.147 69.6427C116.181 71.8021 116.696 73.927 117.657 75.8634C118.617 77.7997 119.998 79.4991 121.7 80.8382C123.401 82.1773 125.38 83.1228 127.494 83.606C129.607 84.0892 131.803 84.0981 133.92 83.632C136.762 83.0965 139.373 81.7132 141.407 79.6656C143.44 77.6181 144.801 75.003 145.308 72.1673C145.815 69.3317 145.444 66.4095 144.245 63.7886C143.046 61.1676 141.075 58.9718 138.593 57.4924C136.387 56.1342 133.86 55.3809 131.267 55.3088C128.675 55.2367 126.109 55.8484 123.83 57.0818C121.552 58.3153 119.641 60.1267 118.292 62.3325C116.942 64.5384 116.202 67.0603 116.147 69.6427ZM153.073 33.5638C153.112 34.4524 153.494 35.2917 154.14 35.9067C154.785 36.5217 155.644 36.865 156.537 36.865C157.43 36.865 158.288 36.5217 158.934 35.9067C159.579 35.2917 159.961 34.4524 160 33.5638V25.8952C159.961 25.0066 159.579 24.1674 158.934 23.5524C158.288 22.9374 157.43 22.5941 156.537 22.5941C155.644 22.5941 154.785 22.9374 154.14 23.5524C153.494 24.1674 153.112 25.0066 153.073 25.8952V33.5638M134.113 33.5638C134.18 34.435 134.574 35.2491 135.218 35.8431C135.861 36.437 136.706 36.7671 137.583 36.7671C138.461 36.7671 139.306 36.437 139.949 35.8431C140.592 35.2491 140.987 34.435 141.053 33.5638V16.3743C140.999 15.4956 140.61 14.6708 139.965 14.0679C139.321 13.465 138.471 13.1293 137.587 13.1293C136.703 13.1293 135.852 13.465 135.208 14.0679C134.564 14.6708 134.175 15.4956 134.12 16.3743V33.5638M114.873 40.4888C114.94 41.3583 115.333 42.1707 115.976 42.7635C116.618 43.3563 117.461 43.6856 118.337 43.6856C119.212 43.6856 120.056 43.3563 120.698 42.7635C121.34 42.1707 121.734 41.3583 121.8 40.4888V3.30115C121.761 2.41255 121.379 1.57328 120.734 0.958277C120.088 0.343276 119.23 0 118.337 0C117.444 0 116.585 0.343276 115.94 0.958277C115.294 1.57328 114.912 2.41255 114.873 3.30115V40.4888M95.9533 33.5638C96.0081 34.4425 96.3971 35.2673 97.0412 35.8702C97.6854 36.4731 98.536 36.8088 99.42 36.8088C100.304 36.8088 101.155 36.4731 101.799 35.8702C102.443 35.2673 102.832 34.4425 102.887 33.5638V16.3743C102.848 15.4856 102.466 14.6464 101.82 14.0314C101.175 13.4164 100.316 13.0731 99.4233 13.0731C98.5302 13.0731 97.6716 13.4164 97.0264 14.0314C96.3812 14.6464 95.9992 15.4856 95.96 16.3743V33.5638M76.6267 33.5638C76.7111 34.4202 77.1125 35.2147 77.7526 35.7927C78.3928 36.3707 79.2259 36.6908 80.09 36.6908C80.9541 36.6908 81.7872 36.3707 82.4274 35.7927C83.0675 35.2147 83.4689 34.4202 83.5533 33.5638V25.8952C83.5142 25.0066 83.1322 24.1674 82.487 23.5524C81.8417 22.9374 80.9831 22.5941 80.09 22.5941C79.1969 22.5941 78.3382 22.9374 77.693 23.5524C77.0478 24.1674 76.6658 25.0066 76.6267 25.8952V33.5638ZM57.4933 33.5638C57.5325 34.4524 57.9145 35.2917 58.5597 35.9067C59.2049 36.5217 60.0636 36.865 60.9567 36.865C61.8498 36.865 62.7084 36.5217 63.3536 35.9067C63.9988 35.2917 64.3808 34.4524 64.42 33.5638V16.3743C64.3808 15.4856 63.9988 14.6464 63.3536 14.0314C62.7084 13.4164 61.8498 13.0731 60.9567 13.0731C60.0636 13.0731 59.2049 13.4164 58.5597 14.0314C57.9145 14.6464 57.5325 15.4856 57.4933 16.3743V33.5638ZM38.2467 40.4888C38.2858 41.3774 38.6678 42.2167 39.313 42.8317C39.9582 43.4467 40.8169 43.7899 41.71 43.7899C42.6031 43.7899 43.4618 43.4467 44.107 42.8317C44.7522 42.2167 45.1342 41.3774 45.1733 40.4888V3.30115C45.1342 2.41255 44.7522 1.57328 44.107 0.958277C43.4618 0.343276 42.6031 0 41.71 0C40.8169 0 39.9582 0.343276 39.313 0.958277C38.6678 1.57328 38.2858 2.41255 38.2467 3.30115V40.4888M19.1733 33.5638C19.2494 34.4272 19.6476 35.2309 20.2893 35.8163C20.931 36.4018 21.7697 36.7265 22.64 36.7265C23.5103 36.7265 24.349 36.4018 24.9907 35.8163C25.6324 35.2309 26.0306 34.4272 26.1067 33.5638V16.3743C26.0675 15.4856 25.6855 14.6464 25.0403 14.0314C24.3951 13.4164 23.5364 13.0731 22.6433 13.0731C21.7502 13.0731 20.8916 13.4164 20.2464 14.0314C19.6012 14.6464 19.2192 15.4856 19.18 16.3743V33.5638M0 33.5638C0.0663944 34.4333 0.460085 35.2458 1.10227 35.8386C1.74445 36.4313 2.58774 36.7607 3.46333 36.7607C4.33893 36.7607 5.18221 36.4313 5.8244 35.8386C6.46658 35.2458 6.86027 34.4333 6.92667 33.5638V25.8952C6.88751 25.0066 6.50551 24.1674 5.8603 23.5524C5.21508 22.9374 4.35644 22.5941 3.46333 22.5941C2.57023 22.5941 1.71158 22.9374 1.06637 23.5524C0.421153 24.1674 0.0391558 25.0066 0 25.8952L0 33.5638Z" fill="#ADADAD"/>
</svg>
