<svg xmlns="http://www.w3.org/2000/svg" width="183" height="45" fill="none" viewBox="0 0 183 45"><path fill="#ADADAD" d="M55.9129 18.1057C58.0074 18.1057 59.7051 16.3959 59.7051 14.2871C59.7051 12.1779 58.0074 10.4685 55.9129 10.4685C53.8184 10.4685 52.1206 12.1779 52.1206 14.2871C52.1206 16.3959 53.8184 18.1057 55.9129 18.1057V18.1057ZM181.068 31.1524C180.491 30.7441 180.045 30.6764 179.676 31.4694C173.307 45.3563 162.573 38.4266 163.639 39.0364C166.02 37.9401 172.282 32.8849 171.335 25.9047C170.761 21.6389 167.124 19.7467 163.263 20.4242C156.524 21.6069 154.045 28.9238 155.307 35.4017C155.528 36.5142 155.923 37.4317 156.317 38.3305C148.702 44.5644 145.678 32.75 145.334 31.3381C145.321 31.2625 151.214 26.3174 152.853 14.5335C154.572 2.18334 150.658 -0.0654202 146.656 0.00474117C139.25 0.13463 137.249 15.7108 139.937 28.6925C139.712 28.7515 138.664 29.3358 136.98 29.4013C135.769 25.5633 130.591 22.1991 129.236 23.4955C125.845 26.7384 130.059 33.0785 133.024 33.5757C131.243 44.6184 120.104 41.8835 122.178 28.0488C125.805 21.2683 128.563 11.1863 128.071 5.0999C127.897 2.94504 126.314 0.0579919 122.735 0.201193C115.851 0.475362 115.102 16.0559 115.909 27.114C115.869 26.8416 115.486 28.4575 112.665 29.261C111.998 25.5323 106.034 21.7897 104.63 23.589C102.002 26.9568 106.556 32.9615 108.714 33.3803C106.933 44.4227 95.7947 41.6878 97.8681 27.8531C101.495 21.0729 104.253 10.9909 103.761 4.90452C103.587 2.74931 102.005 -0.13774 98.425 0.00510097C91.5407 0.27963 90.7922 15.8601 91.5993 26.9183C91.5589 26.6416 91.1668 28.3107 88.2306 29.1008C88.1323 24.2633 82.1466 22.0451 80.7086 23.5887C78.1459 26.3401 81.2955 31.9854 84.2092 33.3803C82.4282 44.4227 71.2902 41.6878 73.3636 27.8531C76.9907 21.0729 79.7493 10.9909 79.2568 4.90452C79.0827 2.74931 77.5001 -0.13774 73.9205 0.00510097C67.0366 0.27963 66.4826 16.6434 67.2896 27.7012C65.0221 37.481 57.418 49.6941 58.4059 25.2287C58.5035 23.5124 58.61 22.8608 57.76 22.2182C57.1231 21.7188 55.6748 21.9591 54.8831 21.9789C53.921 22.0178 53.6797 22.5845 53.467 23.4412C52.9717 25.6532 52.8827 27.7976 52.8119 30.7236C52.7654 32.0922 52.6564 32.7309 52.1328 34.5972C51.6099 36.4631 48.6265 39.8737 46.9931 39.3034C44.727 38.519 45.4705 32.0793 45.8951 27.6548C46.2489 24.1582 45.1159 22.5881 42.2129 22.0171C40.5134 21.6605 39.4808 21.7152 37.7108 21.1535C36.037 20.6225 35.6585 17.4353 32.0886 18.4975C30.136 19.0789 31.3913 23.2436 30.922 26.3304C28.6148 41.5144 23.8143 41.9314 21.5872 34.5554C31.6175 9.82589 24.4887 0.0767016 20.3158 0.0767016C15.9696 0.0767016 11.0014 3.0904 13.1052 22.3729C12.0823 22.0725 11.7677 21.9106 10.6479 21.9106C4.31479 21.9106 0 27.0644 0 33.4221C0 39.7798 4.31515 44.9339 10.6483 44.9339C14.3869 44.9339 17.0118 43.2224 18.9998 40.5746C20.2969 42.4445 21.8763 44.9627 24.7647 44.8494C33.3739 44.5119 35.8776 26.7344 36.1732 25.7428C37.0936 25.8857 37.9642 26.1559 38.8142 26.2987C40.2303 26.5128 40.3332 27.077 40.3011 28.5108C39.9258 40.6016 42.1421 44.835 47.1696 44.835C49.9707 44.835 52.4673 42.0645 54.1873 40.0834C55.4718 42.7525 57.5188 44.7533 60.2648 44.8346C66.919 45.0012 69.4667 34.3248 69.2343 35.7298C69.0521 36.8323 71.3932 44.7745 78.2435 44.8033C86.7291 44.8393 88.3064 35.4456 88.4944 33.8722C88.5179 33.5592 88.5283 33.5915 88.4944 33.8722L88.4879 33.9675C91.1818 33.4631 92.5718 32.0091 92.5718 32.0091C92.5718 32.0091 94.7349 44.9494 102.748 44.8037C111.068 44.6518 112.637 36.1605 112.843 34.5047C112.871 34.1118 112.887 34.1579 112.843 34.5047C112.842 34.5209 112.841 34.5371 112.84 34.5533C116.04 33.3814 116.882 32.2052 116.882 32.2052C116.882 32.2052 118.601 44.8882 127.058 44.9991C134.594 45.0984 137.386 37.3299 137.403 34.0783C138.674 34.092 141.025 33.3192 140.97 33.2753C140.97 33.2753 143.73 44.3644 151.439 44.9339C155.058 45.2013 157.773 42.8838 159.321 41.8267C162.958 44.7918 175.069 48.5791 182.716 35.5273C183.796 33.6541 181.475 31.4414 181.068 31.1524V31.1524ZM10.3427 40.6285C6.64768 40.6285 4.27834 37.1892 4.27834 33.4807C4.27834 29.7726 6.45325 26.3332 10.1483 26.3332C11.811 26.3332 12.736 26.5175 14.0309 27.6512C14.2658 28.5827 14.9313 30.7315 15.2551 31.7073C15.689 33.013 16.2051 34.1244 16.7255 35.3341C15.9821 38.4366 13.5448 40.6285 10.3427 40.6285V40.6285ZM19.3469 27.7602C19.1932 27.5138 19.2253 27.6652 19.0534 27.4324C18.3761 25.5777 17.0708 21.4378 16.9196 16.7355C16.7488 11.4162 17.6295 5.18121 20.2258 5.18121C21.985 5.18121 23.8547 17.8175 19.3465 27.7602H19.3469ZM71.3735 22.2178C70.9568 19.0613 70.935 4.98944 74.2908 5.37694C76.1437 6.13253 73.1159 19.411 71.3735 22.2178ZM95.878 22.2178C95.4612 19.0613 95.4394 4.98944 98.7953 5.37694C100.648 6.13253 97.6204 19.411 95.878 22.2178ZM120.188 22.4139C119.771 19.257 119.749 5.18517 123.105 5.57268C124.958 6.32826 121.93 19.6071 120.188 22.4139ZM147.026 4.55336C150.094 4.23313 149.968 17.7207 143.809 26.2357C143.015 23.158 141.797 5.6101 147.026 4.553V4.55336ZM159.922 33.5757C158.936 28.5647 161.483 25.2736 164.108 24.9127C165.025 24.7652 166.355 25.3636 166.62 26.4822C167.056 28.5903 166.557 31.7173 160.682 35.6849C160.69 35.7187 160.142 34.6918 159.922 33.5757H159.922Z"/></svg>