<svg xmlns="http://www.w3.org/2000/svg" width="217" height="71" fill="none" viewBox="0 0 217 71"><path fill="#ADADAD" d="M209.702 43.3599L215.716 47.3688C213.764 50.2436 209.096 55.1759 201.025 55.1759C191.003 55.1759 183.539 47.4218 183.539 37.5575C183.539 27.0607 191.082 19.9395 200.181 19.9395C209.333 19.9395 213.817 27.2186 215.268 31.1484L216.059 33.1531L192.48 42.9115C194.274 46.4459 197.07 48.2393 201.025 48.2393C204.982 48.2393 207.724 46.2875 209.702 43.3599V43.3599ZM191.214 37.0041L206.96 30.4629C206.089 28.2741 203.505 26.7182 200.419 26.7182C196.489 26.7182 191.03 30.1996 191.214 37.0041Z"/><path fill="#ADADAD" d="M172.172 1.97845H179.768V53.567H172.172V1.97803V1.97845Z"/><path fill="#ADADAD" d="M160.198 21.3107H167.53V52.6436C167.53 65.6459 159.855 71 150.782 71C142.237 71 137.094 65.2505 135.169 60.5823L141.894 57.7863C143.107 60.6611 146.035 64.0638 150.782 64.0638C156.611 64.0638 160.198 60.4502 160.198 53.6986V51.1668H159.934C158.193 53.2765 154.87 55.1754 150.65 55.1754C141.841 55.1754 133.77 47.5004 133.77 37.6103C133.77 27.6668 141.841 19.9131 150.65 19.9131C154.844 19.9131 158.193 21.7857 159.934 23.8429H160.198V21.3111V21.3107ZM160.725 37.6103C160.725 31.3858 156.585 26.8493 151.31 26.8493C145.982 26.8493 141.498 31.3858 141.498 37.6103C141.498 43.7552 145.982 48.2125 151.31 48.2125C156.585 48.2392 160.726 43.7552 160.726 37.6103H160.725Z"/><path fill="#ADADAD" d="M92.0728 37.4783C92.0728 47.6325 84.1607 55.0963 74.4548 55.0963C64.7493 55.0963 56.8368 47.6063 56.8368 37.4783C56.8368 27.2715 64.7493 19.834 74.4548 19.834C84.1607 19.834 92.0728 27.2715 92.0728 37.4783ZM84.3716 37.4783C84.3716 31.1488 79.7822 26.7964 74.4548 26.7964C69.1274 26.7964 64.538 31.1488 64.538 37.4783C64.538 43.7552 69.1274 48.1601 74.4548 48.1601C79.7826 48.1601 84.3716 43.7552 84.3716 37.4783Z"/><path fill="#ADADAD" d="M130.553 37.5575C130.553 47.7118 122.641 55.1755 112.935 55.1755C103.229 55.1755 95.3171 47.7113 95.3171 37.5575C95.3171 27.3507 103.229 19.9395 112.935 19.9395C122.641 19.9395 130.553 27.3244 130.553 37.5575V37.5575ZM122.825 37.5575C122.825 31.228 118.236 26.8757 112.908 26.8757C107.581 26.8757 102.992 31.228 102.992 37.5575C102.992 43.8345 107.581 48.2393 112.908 48.2393C118.263 48.2393 122.825 43.8082 122.825 37.5575Z"/><path fill="#ADADAD" d="M27.8777 47.4479C16.8267 47.4479 8.17627 38.5333 8.17627 27.4823C8.17627 16.4317 16.8267 7.51707 27.8777 7.51707C33.8385 7.51707 38.1899 9.86428 41.4076 12.8711L46.7091 7.56999C42.2256 3.27102 36.2386 0 27.8777 0C12.739 0.000423378 0 12.344 0 27.4823C0 42.6214 12.739 54.9646 27.8777 54.9646C36.054 54.9646 42.2256 52.2744 47.0521 47.2633C52.0103 42.3047 53.5399 35.3419 53.5399 29.6978C53.5399 27.9307 53.3291 26.111 53.0916 24.7659H27.8777V32.098H45.8387C45.3112 36.6874 43.8607 39.8259 41.7243 41.9618C39.1396 44.5732 35.0519 47.4479 27.8777 47.4479V47.4479Z"/></svg>