<svg width="208" height="56" viewBox="0 0 208 56" fill="none" xmlns="http://www.w3.org/2000/svg">
<path d="M138.392 0V40.7916C143.413 41.0256 148.421 41.3086 153.415 41.6424V50.291C145.495 49.7617 137.566 49.3601 129.633 49.0864V0H138.392V0ZM208 0.00488507L196.594 26.5039L207.997 55.9927L207.985 55.998C204.66 55.5239 201.332 55.073 198.001 54.6452L191.597 38.0946L185.132 53.1089C182.065 52.7693 178.997 52.4491 175.926 52.1481L187.045 26.3265L176.862 0.00529216H186.338L192.039 14.7354L198.379 0.00488507H208ZM99.5693 48.6577V0.00447798H124.021V8.73084H108.329V20.0398H120.202V28.6884H108.329V48.6561L99.5693 48.6577V48.6577ZM66.8609 8.73125V0.00407089H93.9537V8.73084H84.7867V48.8943C81.8629 48.9716 78.9424 49.062 76.0279 49.1723V8.73125H66.8609ZM36.9155 51.6865V0.00569925H61.2457V8.73166H45.6738V20.5519C49.2512 20.5059 54.3379 20.4542 57.5026 20.4615V29.1109C53.5412 29.0621 49.0696 29.1655 45.6738 29.1993V42.2929C50.8606 41.8833 56.0515 41.5278 61.2457 41.2263V49.8758C53.1262 50.3451 45.015 50.9491 36.9155 51.6873V51.6865ZM19.7323 31.6935L19.7319 0.00407089H28.4915V52.5023C25.2894 52.832 22.0931 53.1834 18.9028 53.5542L8.75914 24.3537V54.8048C5.83709 55.1858 2.91733 55.5842 0 56V0.00488507H8.32445L19.7319 31.6935H19.7323ZM160.642 50.8125V0.00488507H169.401V51.5375C166.485 51.277 163.566 51.0368 160.642 50.8129V50.8125Z" fill="#ADADAD"/>
</svg>
