<svg width="29" height="29" viewBox="0 0 29 29" fill="none" xmlns="http://www.w3.org/2000/svg">
<path d="M20.5422 18.0755H19.2439L18.7838 17.6318C20.4499 15.6994 21.3657 13.2324 21.3639 10.681C21.3639 8.56847 20.7374 6.50342 19.5636 4.74694C18.3899 2.99047 16.7216 1.62146 14.7697 0.813044C12.8179 0.00462789 10.6701 -0.206891 8.598 0.205236C6.5259 0.617364 4.62257 1.63463 3.12867 3.12838C1.63478 4.62214 0.61742 6.52531 0.205255 8.59721C-0.20691 10.6691 0.00462832 12.8167 0.813119 14.7684C1.62161 16.7201 2.99074 18.3882 4.74738 19.5619C6.50401 20.7355 8.56925 21.3619 10.6819 21.3619C13.3278 21.3619 15.76 20.3924 17.6334 18.7821L18.0771 19.2422V20.5403L26.294 28.74L28.7426 26.2916L20.5422 18.0755ZM10.6819 18.0755C6.58994 18.0755 3.28675 14.7726 3.28675 10.681C3.28675 6.58933 6.58994 3.28645 10.6819 3.28645C14.7739 3.28645 18.0771 6.58933 18.0771 10.681C18.0771 14.7726 14.7739 18.0755 10.6819 18.0755Z" fill="white"/>
</svg>
