<svg xmlns="http://www.w3.org/2000/svg" width="78" height="78" fill="none" viewBox="0 0 78 78"><circle cx="39" cy="39" r="39" fill="#000"/><path fill="#fff" d="M50.3636 29.4354H55.6818L61 36.784V47.5533H57.3925C57.1818 49.0648 56.4445 50.4479 55.3161 51.4485C54.1877 52.4491 52.7439 53 51.25 53C49.7561 53 48.3123 52.4491 47.1839 51.4485C46.0555 50.4479 45.3182 49.0648 45.1075 47.5533H36.1198C35.909 49.0648 35.1717 50.4479 34.0433 51.4485C32.9149 52.4491 31.4712 53 29.9773 53C28.4834 53 27.0396 52.4491 25.9112 51.4485C24.7828 50.4479 24.0455 49.0648 23.8348 47.5533H22V25.8118C22 25.3313 22.1868 24.8704 22.5192 24.5307C22.8517 24.1909 23.3026 24 23.7727 24H48.5909C49.0611 24 49.512 24.1909 49.8444 24.5307C50.1769 24.8704 50.3636 25.3313 50.3636 25.8118V29.4354ZM50.3636 33.059V38.4943H57.4545V37.978L53.8949 33.059H50.3636Z"/></svg>