<svg width="275" height="44" viewBox="0 0 275 44" fill="none" xmlns="http://www.w3.org/2000/svg">
<path d="M13.728 35L8.8 26.296H6.688V35H2.208V12.664H10.592C12.32 12.664 13.792 12.9733 15.008 13.592C16.224 14.1893 17.1307 15.0107 17.728 16.056C18.3467 17.08 18.656 18.232 18.656 19.512C18.656 20.984 18.2293 22.3173 17.376 23.512C16.5227 24.6853 15.2533 25.496 13.568 25.944L18.912 35H13.728ZM6.688 22.936H10.432C11.648 22.936 12.5547 22.648 13.152 22.072C13.7493 21.4747 14.048 20.6533 14.048 19.608C14.048 18.584 13.7493 17.7947 13.152 17.24C12.5547 16.664 11.648 16.376 10.432 16.376H6.688V22.936ZM30.58 35.288C28.8733 35.288 27.3373 34.9147 25.972 34.168C24.6067 33.4 23.5293 32.3227 22.74 30.936C21.972 29.5493 21.588 27.9493 21.588 26.136C21.588 24.3227 21.9827 22.7227 22.772 21.336C23.5827 19.9493 24.6813 18.8827 26.068 18.136C27.4547 17.368 29.0013 16.984 30.708 16.984C32.4147 16.984 33.9613 17.368 35.348 18.136C36.7347 18.8827 37.8227 19.9493 38.612 21.336C39.4227 22.7227 39.828 24.3227 39.828 26.136C39.828 27.9493 39.412 29.5493 38.58 30.936C37.7693 32.3227 36.66 33.4 35.252 34.168C33.8653 34.9147 32.308 35.288 30.58 35.288ZM30.58 31.384C31.3907 31.384 32.148 31.192 32.852 30.808C33.5773 30.4027 34.1533 29.8053 34.58 29.016C35.0067 28.2267 35.22 27.2667 35.22 26.136C35.22 24.4507 34.772 23.16 33.876 22.264C33.0013 21.3467 31.924 20.888 30.644 20.888C29.364 20.888 28.2867 21.3467 27.412 22.264C26.5587 23.16 26.132 24.4507 26.132 26.136C26.132 27.8213 26.548 29.1227 27.38 30.04C28.2333 30.936 29.3 31.384 30.58 31.384ZM60.0743 17.272L49.0983 43.384H44.3303L48.1703 34.552L41.0663 17.272H46.0903L50.6663 29.656L55.3063 17.272H60.0743ZM61.3372 26.072C61.3372 24.28 61.6892 22.6907 62.3932 21.304C63.1186 19.9173 64.0893 18.8507 65.3053 18.104C66.5426 17.3573 67.9186 16.984 69.4333 16.984C70.7559 16.984 71.9079 17.2507 72.8893 17.784C73.8919 18.3173 74.6919 18.9893 75.2893 19.8V17.272H79.8013V35H75.2893V32.408C74.7133 33.24 73.9133 33.9333 72.8893 34.488C71.8866 35.0213 70.7239 35.288 69.4013 35.288C67.9079 35.288 66.5426 34.904 65.3053 34.136C64.0893 33.368 63.1186 32.2907 62.3932 30.904C61.6892 29.496 61.3372 27.8853 61.3372 26.072ZM75.2893 26.136C75.2893 25.048 75.0759 24.12 74.6493 23.352C74.2226 22.5627 73.6466 21.9653 72.9213 21.56C72.1959 21.1333 71.4173 20.92 70.5853 20.92C69.7533 20.92 68.9853 21.1227 68.2812 21.528C67.5773 21.9333 67.0013 22.5307 66.5533 23.32C66.1266 24.088 65.9133 25.0053 65.9133 26.072C65.9133 27.1387 66.1266 28.0773 66.5533 28.888C67.0013 29.6773 67.5773 30.2853 68.2812 30.712C69.0066 31.1387 69.7746 31.352 70.5853 31.352C71.4173 31.352 72.1959 31.1493 72.9213 30.744C73.6466 30.3173 74.2226 29.72 74.6493 28.952C75.0759 28.1627 75.2893 27.224 75.2893 26.136ZM88.6568 11.32V35H84.1768V11.32H88.6568ZM109.723 38.936L106.331 34.872C105.392 35.1067 104.432 35.224 103.451 35.224C101.36 35.224 99.4403 34.7333 97.691 33.752C95.9417 32.7707 94.555 31.416 93.531 29.688C92.507 27.9387 91.995 25.9653 91.995 23.768C91.995 21.592 92.507 19.64 93.531 17.912C94.555 16.1627 95.9417 14.7973 97.691 13.816C99.4403 12.8347 101.36 12.344 103.451 12.344C105.563 12.344 107.483 12.8347 109.211 13.816C110.96 14.7973 112.336 16.1627 113.339 17.912C114.363 19.64 114.875 21.592 114.875 23.768C114.875 25.752 114.448 27.5653 113.595 29.208C112.763 30.8293 111.622 32.152 110.171 33.176L115.291 38.936H109.723ZM96.603 23.768C96.603 25.2613 96.891 26.5733 97.467 27.704C98.043 28.8347 98.843 29.7093 99.867 30.328C100.912 30.9253 102.107 31.224 103.451 31.224C104.795 31.224 105.979 30.9253 107.003 30.328C108.027 29.7093 108.827 28.8347 109.403 27.704C109.979 26.5733 110.267 25.2613 110.267 23.768C110.267 22.2747 109.979 20.9733 109.403 19.864C108.827 18.7333 108.027 17.8693 107.003 17.272C105.979 16.6747 104.795 16.376 103.451 16.376C102.107 16.376 100.912 16.6747 99.867 17.272C98.843 17.8693 98.043 18.7333 97.467 19.864C96.891 20.9733 96.603 22.2747 96.603 23.768ZM131.967 30.744H123.071L121.599 35H116.895L124.927 12.632H130.143L138.175 35H133.439L131.967 30.744ZM130.751 27.16L127.519 17.816L124.286 27.16H130.751ZM147.961 35.288C146.51 35.288 145.209 35.032 144.057 34.52C142.905 33.9867 141.987 33.272 141.305 32.376C140.643 31.48 140.281 30.488 140.217 29.4H144.729C144.814 30.0827 145.145 30.648 145.721 31.096C146.318 31.544 147.054 31.768 147.929 31.768C148.782 31.768 149.443 31.5973 149.913 31.256C150.403 30.9147 150.649 30.4773 150.649 29.944C150.649 29.368 150.35 28.9413 149.753 28.664C149.177 28.3653 148.249 28.0453 146.969 27.704C145.646 27.384 144.558 27.0533 143.705 26.712C142.873 26.3707 142.147 25.848 141.529 25.144C140.931 24.44 140.633 23.4907 140.633 22.296C140.633 21.3147 140.91 20.4187 141.465 19.608C142.041 18.7973 142.851 18.1573 143.897 17.688C144.963 17.2187 146.211 16.984 147.641 16.984C149.753 16.984 151.438 17.5173 152.697 18.584C153.955 19.6293 154.649 21.048 154.777 22.84H150.489C150.425 22.136 150.126 21.5813 149.593 21.176C149.081 20.7493 148.387 20.536 147.513 20.536C146.702 20.536 146.073 20.6853 145.625 20.984C145.198 21.2827 144.985 21.6987 144.985 22.232C144.985 22.8293 145.283 23.288 145.881 23.608C146.478 23.9067 147.406 24.216 148.665 24.536C149.945 24.856 151.001 25.1867 151.833 25.528C152.665 25.8693 153.379 26.4027 153.977 27.128C154.595 27.832 154.915 28.7707 154.937 29.944C154.937 30.968 154.649 31.8853 154.073 32.696C153.518 33.5067 152.707 34.1467 151.641 34.616C150.595 35.064 149.369 35.288 147.961 35.288ZM165.398 35.288C163.948 35.288 162.646 35.032 161.494 34.52C160.342 33.9867 159.425 33.272 158.742 32.376C158.081 31.48 157.718 30.488 157.654 29.4H162.166C162.252 30.0827 162.582 30.648 163.158 31.096C163.756 31.544 164.492 31.768 165.366 31.768C166.22 31.768 166.881 31.5973 167.35 31.256C167.841 30.9147 168.086 30.4773 168.086 29.944C168.086 29.368 167.788 28.9413 167.19 28.664C166.614 28.3653 165.686 28.0453 164.406 27.704C163.084 27.384 161.996 27.0533 161.142 26.712C160.31 26.3707 159.585 25.848 158.966 25.144C158.369 24.44 158.07 23.4907 158.07 22.296C158.07 21.3147 158.348 20.4187 158.902 19.608C159.478 18.7973 160.289 18.1573 161.334 17.688C162.401 17.2187 163.649 16.984 165.078 16.984C167.19 16.984 168.876 17.5173 170.134 18.584C171.393 19.6293 172.086 21.048 172.214 22.84H167.926C167.862 22.136 167.564 21.5813 167.03 21.176C166.518 20.7493 165.825 20.536 164.95 20.536C164.14 20.536 163.51 20.6853 163.062 20.984C162.636 21.2827 162.422 21.6987 162.422 22.232C162.422 22.8293 162.721 23.288 163.318 23.608C163.916 23.9067 164.844 24.216 166.102 24.536C167.382 24.856 168.438 25.1867 169.27 25.528C170.102 25.8693 170.817 26.4027 171.414 27.128C172.033 27.832 172.353 28.7707 172.374 29.944C172.374 30.968 172.086 31.8853 171.51 32.696C170.956 33.5067 170.145 34.1467 169.078 34.616C168.033 35.064 166.806 35.288 165.398 35.288ZM178.324 15.16C177.534 15.16 176.873 14.9147 176.34 14.424C175.828 13.912 175.572 13.2827 175.572 12.536C175.572 11.7893 175.828 11.1707 176.34 10.68C176.873 10.168 177.534 9.912 178.324 9.912C179.113 9.912 179.764 10.168 180.276 10.68C180.809 11.1707 181.076 11.7893 181.076 12.536C181.076 13.2827 180.809 13.912 180.276 14.424C179.764 14.9147 179.113 15.16 178.324 15.16ZM180.532 17.272V35H176.052V17.272H180.532ZM190.174 20.952V29.528C190.174 30.1253 190.313 30.5627 190.59 30.84C190.889 31.096 191.379 31.224 192.062 31.224H194.142V35H191.326C187.55 35 185.662 33.1653 185.662 29.496V20.952H183.55V17.272H185.662V12.888H190.174V17.272H194.142V20.952H190.174ZM196.212 26.072C196.212 24.28 196.564 22.6907 197.268 21.304C197.994 19.9173 198.964 18.8507 200.18 18.104C201.418 17.3573 202.794 16.984 204.308 16.984C205.631 16.984 206.783 17.2507 207.764 17.784C208.767 18.3173 209.567 18.9893 210.164 19.8V17.272H214.676V35H210.164V32.408C209.588 33.24 208.788 33.9333 207.764 34.488C206.762 35.0213 205.599 35.288 204.276 35.288C202.783 35.288 201.418 34.904 200.18 34.136C198.964 33.368 197.994 32.2907 197.268 30.904C196.564 29.496 196.212 27.8853 196.212 26.072ZM210.164 26.136C210.164 25.048 209.951 24.12 209.524 23.352C209.098 22.5627 208.522 21.9653 207.796 21.56C207.071 21.1333 206.292 20.92 205.46 20.92C204.628 20.92 203.86 21.1227 203.156 21.528C202.452 21.9333 201.876 22.5307 201.428 23.32C201.002 24.088 200.788 25.0053 200.788 26.072C200.788 27.1387 201.002 28.0773 201.428 28.888C201.876 29.6773 202.452 30.2853 203.156 30.712C203.882 31.1387 204.65 31.352 205.46 31.352C206.292 31.352 207.071 31.1493 207.796 30.744C208.522 30.3173 209.098 29.72 209.524 28.952C209.951 28.1627 210.164 27.224 210.164 26.136ZM228.876 17.016C230.988 17.016 232.694 17.688 233.996 19.032C235.297 20.3547 235.948 22.2107 235.948 24.6V35H231.468V25.208C231.468 23.8 231.116 22.7227 230.412 21.976C229.708 21.208 228.748 20.824 227.532 20.824C226.294 20.824 225.313 21.208 224.588 21.976C223.884 22.7227 223.532 23.8 223.532 25.208V35H219.052V17.272H223.532V19.48C224.129 18.712 224.886 18.1147 225.804 17.688C226.742 17.24 227.766 17.016 228.876 17.016ZM245.424 20.952V29.528C245.424 30.1253 245.563 30.5627 245.84 30.84C246.139 31.096 246.629 31.224 247.312 31.224H249.392V35H246.576C242.8 35 240.912 33.1653 240.912 29.496V20.952H238.8V17.272H240.912V12.888H245.424V17.272H249.392V20.952H245.424Z" fill="black"/>
<path d="M262.944 13.6667L256.611 20V13.6667H262.944Z" fill="black" stroke="black"/>
</svg>
